<svg width="825" height="200" viewBox="0 0 825 200" fill="none" xmlns="http://www.w3.org/2000/svg">
<rect x="0.5" y="0.5" width="824" height="199" rx="45.6" fill="black" stroke="black"/>
<path fill-rule="evenodd" clip-rule="evenodd" d="M100.332 37.5663H97.796C81.8946 37.5663 70.5286 37.5782 61.891 38.7394C53.4135 39.8792 48.4024 42.0336 44.718 45.718C41.0336 49.4024 38.8792 54.4135 37.7394 62.891C36.5782 71.5286 36.5663 82.8946 36.5663 98.7959V101.332C36.5663 117.233 36.5782 128.599 37.7394 137.237C38.8792 145.714 41.0336 150.725 44.718 154.41C48.4024 158.094 53.4135 160.248 61.891 161.388C70.5286 162.549 81.8946 162.561 97.7959 162.561H100.332C116.233 162.561 127.599 162.549 136.237 161.388C144.714 160.248 149.725 158.094 153.41 154.41C157.094 150.725 159.248 145.714 160.388 137.237C161.549 128.599 161.561 117.233 161.561 101.332V98.796C161.561 82.8946 161.549 71.5286 160.388 62.891C159.248 54.4135 157.094 49.4024 153.41 45.718C149.725 42.0336 144.714 39.8792 136.237 38.7394C127.599 37.5782 116.233 37.5663 100.332 37.5663ZM40.782 41.782C31 51.5641 31 67.308 31 98.7959V101.332C31 132.82 31 148.564 40.782 158.346C50.5641 168.128 66.308 168.128 97.7959 168.128H100.332C131.82 168.128 147.564 168.128 157.346 158.346C167.128 148.564 167.128 132.82 167.128 101.332V98.796C167.128 67.308 167.128 51.5641 157.346 41.782C147.564 32 131.82 32 100.332 32H97.796C66.308 32 50.5641 32 40.782 41.782Z" fill="white"/>
<path d="M124.66 58.1784C115.678 58.1784 108.372 65.4851 108.372 74.4672V81.4481H89.7559V74.4672C89.7559 65.4851 82.4492 58.1784 73.4672 58.1784C64.4851 58.1784 57.1784 65.4851 57.1784 74.4672C57.1784 83.4493 64.4851 90.7559 73.4672 90.7559H80.4481V109.372H73.4672C64.4851 109.372 57.1784 116.678 57.1784 125.66C57.1784 134.643 64.4851 141.949 73.4672 141.949C82.4492 141.949 89.7559 134.643 89.7559 125.66V118.68H108.372V125.66C108.372 134.643 115.678 141.949 124.66 141.949C133.643 141.949 140.949 134.643 140.949 125.66C140.949 116.678 133.643 109.372 124.66 109.372H117.68V90.7559H124.66C133.643 90.7559 140.949 83.4493 140.949 74.4672C140.949 65.4851 133.643 58.1784 124.66 58.1784ZM117.68 81.4481V74.4672C117.68 70.6044 120.798 67.4863 124.66 67.4863C128.523 67.4863 131.641 70.6044 131.641 74.4672C131.641 78.3299 128.523 81.4481 124.66 81.4481H117.68ZM73.4672 81.4481C69.6044 81.4481 66.4863 78.3299 66.4863 74.4672C66.4863 70.6044 69.6044 67.4863 73.4672 67.4863C77.3299 67.4863 80.4481 70.6044 80.4481 74.4672V81.4481H73.4672ZM89.7559 109.372V90.7559H108.372V109.372H89.7559ZM124.66 132.641C120.798 132.641 117.68 129.523 117.68 125.66V118.68H124.66C128.523 118.68 131.641 121.798 131.641 125.66C131.641 129.523 128.523 132.641 124.66 132.641ZM73.4672 132.641C69.6044 132.641 66.4863 129.523 66.4863 125.66C66.4863 121.798 69.6044 118.68 73.4672 118.68H80.4481V125.66C80.4481 129.523 77.3299 132.641 73.4672 132.641Z" fill="white"/>
<path d="M195.307 54.895H229.945C252.703 54.895 264.081 62.9688 264.081 79.1165C264.081 84.4712 262.492 88.78 259.312 92.043C256.217 95.306 251.824 97.2722 246.135 97.9415C253.163 98.6108 258.517 100.828 262.199 104.593C265.964 108.274 267.846 113.211 267.846 119.402C267.846 127.601 264.96 133.751 259.187 137.85C253.497 141.95 245.173 144 234.212 144H195.307V54.895ZM233.334 128.438C238.103 128.438 241.826 127.476 244.503 125.552C247.264 123.627 248.645 120.824 248.645 117.143C248.645 113.462 247.264 110.617 244.503 108.609C241.742 106.601 238.019 105.597 233.334 105.597H214.383V128.438H233.334ZM229.443 91.792C234.212 91.792 237.977 90.8717 240.738 89.031C243.499 87.1903 244.88 84.5548 244.88 81.1245C244.88 74.0128 239.734 70.457 229.443 70.457H214.383V91.792H229.443ZM292.221 145.506C285.109 145.506 279.378 143.874 275.027 140.611C270.76 137.349 268.627 132.872 268.627 127.183C268.627 121.41 270.426 116.892 274.023 113.629C277.621 110.282 283.185 107.856 290.715 106.35L312.426 102.083C312.426 93.298 308.578 88.9055 300.88 88.9055C293.936 88.9055 289.836 92.1267 288.581 98.569L269.756 97.6905C271.011 90.3278 274.316 84.764 279.671 80.999C285.025 77.1503 292.095 75.226 300.88 75.226C310.92 75.226 318.492 77.6105 323.596 82.3795C328.699 87.1485 331.251 94.1347 331.251 103.338V126.304C331.251 128.145 331.544 129.4 332.13 130.069C332.715 130.739 333.678 131.073 335.016 131.073H336.899V144C335.225 144.502 332.966 144.753 330.122 144.753C321.755 144.753 316.861 141.113 315.438 133.834C313.681 137.432 310.753 140.277 306.653 142.368C302.637 144.46 297.826 145.506 292.221 145.506ZM296.739 132.579C301.508 132.579 305.315 131.199 308.159 128.438C311.004 125.677 312.426 121.912 312.426 117.143V113.88L297.115 117.143C291.008 118.398 287.954 121.159 287.954 125.426C287.954 127.685 288.707 129.442 290.213 130.697C291.719 131.952 293.894 132.579 296.739 132.579ZM366.581 145.506C356.541 145.506 348.76 143.456 343.238 139.356C337.8 135.173 334.83 129.651 334.328 122.79L353.404 122.163C354.575 128.856 359.01 132.203 366.707 132.203C370.137 132.203 372.773 131.659 374.613 130.571C376.454 129.4 377.374 127.727 377.374 125.552C377.374 124.045 376.998 122.832 376.245 121.912C375.576 120.992 374.237 120.197 372.229 119.527C370.305 118.774 367.46 118.105 363.695 117.519C356.583 116.348 351.019 114.926 347.003 113.252C342.987 111.495 340.143 109.32 338.469 106.726C336.796 104.133 335.959 100.828 335.959 96.812C335.959 90.2023 338.511 84.9732 343.615 81.1245C348.719 77.1922 356.123 75.226 365.828 75.226C374.948 75.226 382.06 77.3177 387.163 81.501C392.351 85.6843 395.363 91.29 396.199 98.318L377.374 99.071C376.956 95.7243 375.701 93.1307 373.609 91.29C371.601 89.4493 368.924 88.529 365.577 88.529C362.314 88.529 359.763 89.1983 357.922 90.537C356.165 91.8757 355.286 93.7163 355.286 96.059C355.286 98.4853 356.207 100.326 358.047 101.581C359.888 102.752 363.151 103.673 367.836 104.342C375.032 105.346 380.721 106.726 384.904 108.483C389.088 110.24 392.1 112.458 393.94 115.135C395.781 117.812 396.701 121.159 396.701 125.175C396.701 131.617 394.024 136.637 388.669 140.235C383.315 143.749 375.952 145.506 366.581 145.506ZM429.38 145.506C422.603 145.506 416.662 144.084 411.559 141.239C406.455 138.311 402.481 134.211 399.636 128.94C396.875 123.585 395.495 117.394 395.495 110.366C395.495 103.338 396.875 97.1885 399.636 91.9175C402.397 86.5628 406.329 82.4632 411.433 79.6185C416.537 76.6902 422.477 75.226 429.254 75.226C435.864 75.226 441.637 76.6902 446.573 79.6185C451.593 82.5468 455.442 86.772 458.119 92.294C460.796 97.7323 462.135 104.175 462.135 111.621V115.386H414.947C415.114 120.573 416.495 124.506 419.089 127.183C421.682 129.86 425.238 131.199 429.756 131.199C436.282 131.199 440.465 128.48 442.306 123.041L461.257 124.171C459.416 130.864 455.651 136.093 449.962 139.859C444.356 143.624 437.495 145.506 429.38 145.506ZM442.934 103.84C442.683 99.071 441.344 95.4315 438.918 92.9215C436.491 90.4115 433.27 89.1565 429.254 89.1565C425.322 89.1565 422.059 90.4533 419.465 93.047C416.955 95.6407 415.449 99.2383 414.947 103.84H442.934ZM491.077 54.895H513.667L545.795 144H525.966L519.44 125.049H485.178L478.652 144H458.949L491.077 54.895ZM514.169 109.362L502.372 74.975L490.575 109.362H514.169ZM548.08 54.895H567.156V144H548.08V54.895ZM571.273 124.798H591.604V144H571.273V124.798ZM618.867 145.506C613.261 145.506 608.367 144.084 604.183 141.239C600.084 138.394 596.904 134.336 594.645 129.065C592.47 123.711 591.382 117.478 591.382 110.366C591.382 103.254 592.512 97.063 594.771 91.792C597.03 86.521 600.209 82.4632 604.309 79.6185C608.492 76.6902 613.345 75.226 618.867 75.226C623.636 75.226 627.777 76.1882 631.291 78.1125C634.805 80.0368 637.441 82.756 639.198 86.27V54.895H658.023V144H639.951L639.574 134.085C637.734 137.683 634.973 140.486 631.291 142.494C627.694 144.502 623.552 145.506 618.867 145.506ZM625.142 131.073C629.66 131.073 633.132 129.316 635.558 125.802C637.985 122.288 639.198 117.143 639.198 110.366C639.198 103.589 637.985 98.4435 635.558 94.9295C633.132 91.4155 629.66 89.6585 625.142 89.6585C620.708 89.6585 617.194 91.541 614.6 95.306C612.006 98.9873 610.709 104.007 610.709 110.366C610.709 116.641 612.006 121.661 614.6 125.426C617.277 129.191 620.791 131.073 625.142 131.073ZM694.523 145.506C687.746 145.506 681.805 144.084 676.702 141.239C671.598 138.311 667.624 134.211 664.779 128.94C662.018 123.585 660.638 117.394 660.638 110.366C660.638 103.338 662.018 97.1885 664.779 91.9175C667.54 86.5628 671.473 82.4632 676.576 79.6185C681.68 76.6902 687.62 75.226 694.397 75.226C701.007 75.226 706.78 76.6902 711.716 79.6185C716.736 82.5468 720.585 86.772 723.262 92.294C725.94 97.7323 727.278 104.175 727.278 111.621V115.386H680.09C680.258 120.573 681.638 124.506 684.232 127.183C686.825 129.86 690.381 131.199 694.899 131.199C701.425 131.199 705.609 128.48 707.449 123.041L726.4 124.171C724.559 130.864 720.794 136.093 715.105 139.859C709.499 143.624 702.638 145.506 694.523 145.506ZM708.077 103.84C707.826 99.071 706.487 95.4315 704.061 92.9215C701.634 90.4115 698.413 89.1565 694.397 89.1565C690.465 89.1565 687.202 90.4533 684.608 93.047C682.098 95.6407 680.592 99.2383 680.09 103.84H708.077ZM721.139 76.732H740.842L756.781 125.049L772.719 76.732H792.297L767.699 144H745.737L721.139 76.732Z" fill="white"/>
</svg>
