<svg width="150" height="40" viewBox="0 0 150 40" fill="none" xmlns="http://www.w3.org/2000/svg">
<rect width="150" height="40" fill="black"/>
<path d="M6.5 19C6.5 16.1574 6.50106 14.0758 6.71521 12.483C6.92743 10.9046 7.34062 9.88121 8.11091 9.11091C8.88121 8.34062 9.90455 7.92743 11.483 7.71521C13.0758 7.50106 15.1574 7.5 18 7.5H20C22.8426 7.5 24.9242 7.50106 26.517 7.71521C28.0954 7.92743 29.1188 8.34062 29.8891 9.11091C30.6594 9.88121 31.0726 10.9046 31.2848 12.483C31.4989 14.0758 31.5 16.1574 31.5 19V21C31.5 23.8426 31.4989 25.9242 31.2848 27.517C31.0726 29.0954 30.6594 30.1188 29.8891 30.8891C29.1188 31.6594 28.0954 32.0726 26.517 32.2848C24.9242 32.4989 22.8426 32.5 20 32.5H18C15.1574 32.5 13.0758 32.4989 11.483 32.2848C9.90455 32.0726 8.88121 31.6594 8.11091 30.8891C7.34062 30.1188 6.92743 29.0954 6.71521 27.517C6.50106 25.9242 6.5 23.8426 6.5 21V19Z" fill="black" stroke="white"/>
<g filter="url(#filter0_d_4010_6)">
<path d="M23.8889 12C22.1733 12 20.7778 13.3956 20.7778 15.1111V16.4444H17.2222V15.1111C17.2222 13.3956 15.8267 12 14.1111 12C12.3956 12 11 13.3956 11 15.1111C11 16.8267 12.3956 18.2222 14.1111 18.2222H15.4444V21.7778H14.1111C12.3956 21.7778 11 23.1733 11 24.8889C11 26.6044 12.3956 28 14.1111 28C15.8267 28 17.2222 26.6044 17.2222 24.8889V23.5556H20.7778V24.8889C20.7778 26.6044 22.1733 28 23.8889 28C25.6044 28 27 26.6044 27 24.8889C27 23.1733 25.6044 21.7778 23.8889 21.7778H22.5556V18.2222H23.8889C25.6044 18.2222 27 16.8267 27 15.1111C27 13.3956 25.6044 12 23.8889 12ZM22.5556 16.4444V15.1111C22.5556 14.3733 23.1511 13.7778 23.8889 13.7778C24.6267 13.7778 25.2222 14.3733 25.2222 15.1111C25.2222 15.8489 24.6267 16.4444 23.8889 16.4444H22.5556ZM14.1111 16.4444C13.3733 16.4444 12.7778 15.8489 12.7778 15.1111C12.7778 14.3733 13.3733 13.7778 14.1111 13.7778C14.8489 13.7778 15.4444 14.3733 15.4444 15.1111V16.4444H14.1111ZM17.2222 21.7778V18.2222H20.7778V21.7778H17.2222ZM23.8889 26.2222C23.1511 26.2222 22.5556 25.6267 22.5556 24.8889V23.5556H23.8889C24.6267 23.5556 25.2222 24.1511 25.2222 24.8889C25.2222 25.6267 24.6267 26.2222 23.8889 26.2222ZM14.1111 26.2222C13.3733 26.2222 12.7778 25.6267 12.7778 24.8889C12.7778 24.1511 13.3733 23.5556 14.1111 23.5556H15.4444V24.8889C15.4444 25.6267 14.8489 26.2222 14.1111 26.2222Z" fill="white"/>
</g>
<path d="M42.9999 10.96H46.6479V24.928H54.4959V28H42.9999V10.96ZM58.8847 28.288C57.5247 28.288 56.4287 27.976 55.5967 27.352C54.7807 26.728 54.3727 25.872 54.3727 24.784C54.3727 23.68 54.7167 22.816 55.4047 22.192C56.0927 21.552 57.1567 21.088 58.5967 20.8L62.7487 19.984C62.7487 18.304 62.0127 17.464 60.5407 17.464C59.2127 17.464 58.4287 18.08 58.1887 19.312L54.5887 19.144C54.8287 17.736 55.4607 16.672 56.4847 15.952C57.5087 15.216 58.8607 14.848 60.5407 14.848C62.4607 14.848 63.9087 15.304 64.8847 16.216C65.8607 17.128 66.3487 18.464 66.3487 20.224V24.616C66.3487 24.968 66.4047 25.208 66.5167 25.336C66.6287 25.464 66.8127 25.528 67.0687 25.528H67.4287V28C67.1087 28.096 66.6767 28.144 66.1327 28.144C64.5327 28.144 63.5967 27.448 63.3247 26.056C62.9887 26.744 62.4287 27.288 61.6447 27.688C60.8767 28.088 59.9567 28.288 58.8847 28.288ZM59.7487 25.816C60.6607 25.816 61.3887 25.552 61.9327 25.024C62.4767 24.496 62.7487 23.776 62.7487 22.864V22.24L59.8207 22.864C58.6527 23.104 58.0687 23.632 58.0687 24.448C58.0687 24.88 58.2127 25.216 58.5007 25.456C58.7887 25.696 59.2047 25.816 59.7487 25.816ZM67.7023 15.136H70.9423L71.0143 17.248C71.6863 15.648 72.9583 14.848 74.8303 14.848C76.2063 14.848 77.2783 15.288 78.0463 16.168C78.8143 17.032 79.1983 18.216 79.1983 19.72V28H75.5983V20.92C75.5983 19.832 75.4463 19.024 75.1423 18.496C74.8543 17.968 74.3503 17.704 73.6303 17.704C72.8783 17.704 72.3023 17.984 71.9023 18.544C71.5023 19.104 71.3023 19.896 71.3023 20.92V28H67.7023V15.136ZM85.9575 31.888C84.1975 31.888 82.8215 31.568 81.8295 30.928C80.8375 30.288 80.1895 29.408 79.8855 28.288L83.5815 28.024C83.7255 28.472 83.9735 28.808 84.3255 29.032C84.6935 29.256 85.2375 29.368 85.9575 29.368C87.7335 29.368 88.6215 28.512 88.6215 26.8V25.432C88.3015 26.04 87.8055 26.52 87.1335 26.872C86.4775 27.224 85.7335 27.4 84.9015 27.4C83.8455 27.4 82.9095 27.144 82.0935 26.632C81.2775 26.12 80.6375 25.392 80.1735 24.448C79.7255 23.488 79.5015 22.384 79.5015 21.136C79.5015 19.92 79.7255 18.84 80.1735 17.896C80.6375 16.936 81.2695 16.192 82.0695 15.664C82.8855 15.12 83.8135 14.848 84.8535 14.848C85.7655 14.848 86.5495 15.056 87.2055 15.472C87.8615 15.872 88.3655 16.424 88.7175 17.128V15.136H92.2455V26.728C92.2455 28.408 91.6775 29.688 90.5415 30.568C89.4055 31.448 87.8775 31.888 85.9575 31.888ZM85.9335 24.736C86.7655 24.736 87.4215 24.408 87.9015 23.752C88.3975 23.096 88.6455 22.192 88.6455 21.04C88.6455 19.952 88.3975 19.088 87.9015 18.448C87.4055 17.808 86.7495 17.488 85.9335 17.488C85.0855 17.488 84.4135 17.816 83.9175 18.472C83.4375 19.128 83.1975 20.008 83.1975 21.112C83.1975 22.216 83.4455 23.096 83.9415 23.752C84.4375 24.408 85.1015 24.736 85.9335 24.736ZM100.668 28.288C99.7723 28.288 98.9883 28.104 98.3163 27.736C97.6603 27.352 97.1483 26.808 96.7803 26.104L96.7083 28H93.2763V10.96H96.8763V16.96C97.2283 16.336 97.7323 15.832 98.3883 15.448C99.0603 15.048 99.8203 14.848 100.668 14.848C101.74 14.848 102.676 15.128 103.476 15.688C104.292 16.232 104.916 17.016 105.348 18.04C105.796 19.048 106.02 20.224 106.02 21.568C106.02 22.912 105.796 24.096 105.348 25.12C104.916 26.128 104.292 26.912 103.476 27.472C102.676 28.016 101.74 28.288 100.668 28.288ZM99.6603 25.528C100.476 25.528 101.124 25.176 101.604 24.472C102.084 23.768 102.324 22.8 102.324 21.568C102.324 20.336 102.084 19.368 101.604 18.664C101.14 17.96 100.5 17.608 99.6843 17.608C98.8043 17.608 98.1163 17.96 97.6203 18.664C97.1243 19.352 96.8763 20.32 96.8763 21.568C96.8763 22.8 97.1163 23.768 97.5963 24.472C98.0923 25.176 98.7803 25.528 99.6603 25.528ZM110.338 28.288C108.978 28.288 107.882 27.976 107.05 27.352C106.234 26.728 105.826 25.872 105.826 24.784C105.826 23.68 106.17 22.816 106.858 22.192C107.546 21.552 108.61 21.088 110.05 20.8L114.202 19.984C114.202 18.304 113.466 17.464 111.994 17.464C110.666 17.464 109.882 18.08 109.642 19.312L106.042 19.144C106.282 17.736 106.914 16.672 107.938 15.952C108.962 15.216 110.314 14.848 111.994 14.848C113.914 14.848 115.362 15.304 116.338 16.216C117.314 17.128 117.802 18.464 117.802 20.224V24.616C117.802 24.968 117.858 25.208 117.97 25.336C118.082 25.464 118.266 25.528 118.522 25.528H118.882V28C118.562 28.096 118.13 28.144 117.586 28.144C115.986 28.144 115.05 27.448 114.778 26.056C114.442 26.744 113.882 27.288 113.098 27.688C112.33 28.088 111.41 28.288 110.338 28.288ZM111.202 25.816C112.114 25.816 112.842 25.552 113.386 25.024C113.93 24.496 114.202 23.776 114.202 22.864V22.24L111.274 22.864C110.106 23.104 109.522 23.632 109.522 24.448C109.522 24.88 109.666 25.216 109.954 25.456C110.242 25.696 110.658 25.816 111.202 25.816ZM124.558 28.288C122.638 28.288 121.15 27.896 120.094 27.112C119.054 26.312 118.486 25.256 118.39 23.944L122.038 23.824C122.262 25.104 123.11 25.744 124.582 25.744C125.238 25.744 125.742 25.64 126.094 25.432C126.446 25.208 126.622 24.888 126.622 24.472C126.622 24.184 126.55 23.952 126.406 23.776C126.278 23.6 126.022 23.448 125.638 23.32C125.27 23.176 124.726 23.048 124.006 22.936C122.646 22.712 121.582 22.44 120.814 22.12C120.046 21.784 119.502 21.368 119.182 20.872C118.862 20.376 118.702 19.744 118.702 18.976C118.702 17.712 119.19 16.712 120.166 15.976C121.142 15.224 122.558 14.848 124.414 14.848C126.158 14.848 127.518 15.248 128.494 16.048C129.486 16.848 130.062 17.92 130.222 19.264L126.622 19.408C126.542 18.768 126.302 18.272 125.902 17.92C125.518 17.568 125.006 17.392 124.366 17.392C123.742 17.392 123.254 17.52 122.902 17.776C122.566 18.032 122.398 18.384 122.398 18.832C122.398 19.296 122.574 19.648 122.926 19.888C123.278 20.112 123.902 20.288 124.798 20.416C126.174 20.608 127.262 20.872 128.062 21.208C128.862 21.544 129.438 21.968 129.79 22.48C130.142 22.992 130.318 23.632 130.318 24.4C130.318 25.632 129.806 26.592 128.782 27.28C127.758 27.952 126.35 28.288 124.558 28.288ZM136.567 28.288C135.271 28.288 134.135 28.016 133.159 27.472C132.183 26.912 131.423 26.128 130.879 25.12C130.351 24.096 130.087 22.912 130.087 21.568C130.087 20.224 130.351 19.048 130.879 18.04C131.407 17.016 132.159 16.232 133.135 15.688C134.111 15.128 135.247 14.848 136.543 14.848C137.807 14.848 138.911 15.128 139.855 15.688C140.815 16.248 141.551 17.056 142.063 18.112C142.575 19.152 142.831 20.384 142.831 21.808V22.528H133.807C133.839 23.52 134.103 24.272 134.599 24.784C135.095 25.296 135.775 25.552 136.639 25.552C137.887 25.552 138.687 25.032 139.039 23.992L142.663 24.208C142.311 25.488 141.591 26.488 140.503 27.208C139.431 27.928 138.119 28.288 136.567 28.288ZM139.159 20.32C139.111 19.408 138.855 18.712 138.391 18.232C137.927 17.752 137.311 17.512 136.543 17.512C135.791 17.512 135.167 17.76 134.671 18.256C134.191 18.752 133.903 19.44 133.807 20.32H139.159Z" fill="white"/>
<defs>
<filter id="filter0_d_4010_6" x="10.7746" y="12" width="16.4507" height="16.4507" filterUnits="userSpaceOnUse" color-interpolation-filters="sRGB">
<feFlood flood-opacity="0" result="BackgroundImageFix"/>
<feColorMatrix in="SourceAlpha" type="matrix" values="0 0 0 0 0 0 0 0 0 0 0 0 0 0 0 0 0 0 127 0" result="hardAlpha"/>
<feOffset dy="0.225352"/>
<feGaussianBlur stdDeviation="0.112676"/>
<feComposite in2="hardAlpha" operator="out"/>
<feColorMatrix type="matrix" values="0 0 0 0 0 0 0 0 0 0 0 0 0 0 0 0 0 0 0.25 0"/>
<feBlend mode="normal" in2="BackgroundImageFix" result="effect1_dropShadow_4010_6"/>
<feBlend mode="normal" in="SourceGraphic" in2="effect1_dropShadow_4010_6" result="shape"/>
</filter>
</defs>
</svg>
