<svg version="1.2" xmlns="http://www.w3.org/2000/svg" viewBox="0 0 800 600" width="800" height="600"><style>.a{fill:#959595}.b{fill:currentColor}</style><path class="a" d="m149.6 170.9c-28.4 0-51.5 23.1-51.5 51.5v154.3c0 28.2 23.1 51.5 51.5 51.5h161.1c28.2 0 51.5-23.1 51.5-51.5v-205.8z"/><path class="b" d="m302.6 390.7l29.9-36v-12.2h-46.2v12.2h29.9l-29.9 36v12.2h46.2v-12.2zm-126.1-44.4c-5.3-3.8-11.7-6.1-18.8-6.1-19 0-34 16.2-32 35.8 1.5 15 13.7 26.9 28.7 28.4 8.4 0.8 16-1.5 22.1-5.8v4.6h13.5v-60.9h-13.4v4zm0 26.1c0 11.7-10.7 20.8-22.8 18.3-7.1-1.5-12.9-7.1-14.2-14.5-2.5-12.2 6.6-22.8 18.3-22.8 10.4 0 18.8 8.4 18.8 18.8v0.2zm76.1-29.4c-1 0-2.3 0-3.3 0l17.5-22.6h-16l-24.8 33.2c-5.1 6.6-7.6 13.7-7.4 20.8 0.3 8.4 3.8 16 9.6 21.6 5.8 5.3 13.4 8.4 21.6 8.4h1c17.5-0.5 31-14.5 30.7-31.7-0.7-15.8-13.1-28.7-28.9-29.7zm-2 49.2c-4.8 0.3-9.1-1.5-12.4-4.6-3.6-3.3-5.6-8.1-5.8-13.2-0.3-5.3 1.5-10.2 4.8-13.7 3-3.3 7.4-5.3 11.9-5.3h0.8c4.3 0 8.6 1.5 11.7 4.6 3.6 3.3 5.8 8.1 5.8 13.2 0.7 10.1-6.6 18.8-16.8 19zm-60.4-59.6h8.6v70.3h13.4v-82.5h-22.2c0.2 0 0.2 12.2 0.2 12.2z"/><path fill="currentColor" d="m431.3 356.7c-2.6-7.8-8.5-13-19.3-13-11.5 0-20 6.6-20 15.8 0 7.5 4.4 12.6 14.4 14.9l9.1 2.2c5.5 1.2 8.1 3.9 8.1 7.6 0 4.7-4.9 8.6-12.7 8.6-6.9 0-11.2-3-12.7-8.9l-7.9 2c1.9 9.3 9.5 14.2 20.7 14.2 12.7 0 21.3-6.9 21.3-16.3 0-7.6-4.8-12.4-14.5-14.8l-8.1-2c-6.4-1.6-9.4-3.7-9.4-7.9 0-4.7 5-8.1 11.7-8.1 7.3 0 10.3 4 11.8 7.8zm35.5 43.5c12.1 0 20-7.4 21.5-17.1h-8.4c-1.6 6-6.6 9.5-13.1 9.5-9.9 0-16.3-8.2-16.3-20.8 0-12.4 6.5-20.5 16.3-20.5 7.4 0 11.8 4.5 13.1 9.5h8.4c-1.5-10.2-10.1-17-21.6-17-14.8 0-24.6 11.6-24.6 28.2 0 16.4 9.4 28.2 24.7 28.2zm56 0c14.8 0 24.7-11.3 24.7-28.2 0-17-9.9-28.2-24.7-28.2-14.8 0-24.7 11.2-24.7 28.2 0 16.9 9.9 28.2 24.7 28.2zm0-7.6c-11.2 0-16.3-9.6-16.3-20.6 0-10.9 5.1-20.7 16.3-20.7 11.2 0 16.3 9.8 16.3 20.7 0 11-5.1 20.6-16.3 20.6zm72.2-15.9c0 10.3-7.8 14.9-14 14.9-7 0-12-5.1-12-13v-34.1h-8.4v34.6c0 14 7.4 20.6 17.7 20.6 8.2 0 13.6-4.4 16.1-9.9h0.6v9.2h8.4v-54.5h-8.4zm47.4-32.3h-11.7v-13h-8.4v13h-8.2v7.1h8.2v34.1c0 9.6 7.7 14.1 14.8 14.1 3.1 0 5.1-0.6 6.3-1l-1.7-7.5c-0.8 0.1-1.9 0.4-3.7 0.4-3.7 0-7.3-1.1-7.3-8.2v-31.9h11.7zm49.9 12.3c-2.6-7.8-8.5-13-19.3-13-11.5 0-20.1 6.6-20.1 15.8 0 7.5 4.5 12.6 14.5 14.9l9.1 2.1c5.5 1.3 8.1 4 8.1 7.7 0 4.7-5 8.5-12.8 8.5-6.8 0-11.1-2.9-12.6-8.8l-8 2c2 9.3 9.6 14.2 20.8 14.2 12.6 0 21.3-6.9 21.3-16.3 0-7.6-4.8-12.4-14.5-14.8l-8.1-2c-6.5-1.6-9.4-3.7-9.4-7.9 0-4.7 5-8.1 11.7-8.1 7.3 0 10.3 4 11.8 7.8z"/></svg>