<svg xmlns="http://www.w3.org/2000/svg" viewBox="0 0 400 46"><path fill-rule="evenodd" d="M318.733 21.855v14.612c0 .77.09 1.414.267 1.932.178.519.438.94.778 1.266.341.326.764.563 1.268.71a5.961 5.961 0 0 0 1.69.223c.92 0 1.75-.222 2.491-.667a4.628 4.628 0 0 0 1.735-1.842c.415-.785.623-1.666.623-2.643v-13.59h6.183v23.36h-5.07l-.446-3.197h-.311a9.882 9.882 0 0 1-1.98 1.954c-.756.563-1.609 1-2.557 1.31-.95.311-1.988.467-3.114.467-2.373 0-4.256-.651-5.65-1.954-1.393-1.303-2.09-3.405-2.09-6.307V21.855h6.183Zm46.26-.533c2.373 0 4.374.422 6.005 1.266 1.63.844 2.862 2.147 3.692 3.908.83 1.763 1.246 4.035 1.246 6.818v1.599H359.61c.059 1.362.274 2.517.645 3.464.37.948.95 1.651 1.735 2.11.785.46 1.83.688 3.136.688.712 0 1.356-.089 1.934-.267a4.113 4.113 0 0 0 1.49-.799c.416-.355.742-.8.98-1.332.237-.533.355-1.14.355-1.821h6.05c0 1.48-.267 2.769-.801 3.864a7.543 7.543 0 0 1-2.224 2.731c-.95.726-2.084 1.274-3.403 1.644-1.32.37-2.78.555-4.381.555-2.58 0-4.745-.437-6.494-1.31-1.75-.873-3.07-2.214-3.959-4.02-.89-1.806-1.335-4.1-1.335-6.884 0-2.812.445-5.115 1.335-6.906.89-1.791 2.202-3.124 3.936-3.998 1.735-.872 3.863-1.31 6.383-1.31Zm24.554 0c1.363 0 2.639.141 3.825.422 1.186.282 2.224.696 3.114 1.244.89.548 1.586 1.229 2.09 2.043.504.814.757 1.725.757 2.731v.578c0 .177-.016.296-.045.355h-5.916v-.355c0-.533-.163-.984-.49-1.355-.326-.37-.793-.659-1.4-.866-.609-.207-1.342-.311-2.202-.311-.593 0-1.134.044-1.623.133a4.74 4.74 0 0 0-1.268.4c-.356.178-.631.393-.823.644-.193.252-.29.555-.29.91 0 .504.215.911.646 1.222.43.311 1 .57 1.712.777.712.207 1.497.43 2.358.666 1.067.296 2.186.585 3.358.866 1.17.282 2.26.66 3.27 1.133a6.174 6.174 0 0 1 2.446 2.021c.622.873.934 2.05.934 3.53 0 1.422-.275 2.621-.823 3.598a6.344 6.344 0 0 1-2.29 2.354c-.98.593-2.121 1.022-3.426 1.288-1.305.266-2.713.4-4.225.4-1.632 0-3.1-.178-4.404-.533-1.306-.355-2.418-.851-3.336-1.488-.92-.636-1.624-1.4-2.113-2.288-.49-.888-.734-1.894-.734-3.02v-.355c0-.118.014-.207.044-.266h5.96v.355c.03.74.268 1.34.712 1.799.445.46 1.03.792 1.758 1 .726.207 1.49.31 2.29.31.712 0 1.402-.067 2.069-.2s1.23-.378 1.69-.733c.46-.355.69-.814.69-1.377 0-.71-.29-1.258-.868-1.643-.578-.384-1.334-.695-2.268-.932-.934-.237-1.95-.504-3.048-.8a45.554 45.554 0 0 1-3.024-.822 11.742 11.742 0 0 1-2.736-1.221 5.993 5.993 0 0 1-1.979-1.976c-.505-.814-.756-1.843-.756-3.087 0-1.214.267-2.272.8-3.176.534-.903 1.268-1.65 2.202-2.243.934-.591 2.03-1.028 3.292-1.31 1.26-.28 2.616-.422 4.07-.422Zm-274.668.533v14.612c0 .77.089 1.414.266 1.932.179.519.438.94.78 1.266.34.326.762.563 1.267.71a5.962 5.962 0 0 0 1.69.223c.919 0 1.75-.222 2.491-.667a4.627 4.627 0 0 0 1.735-1.842c.415-.785.622-1.666.622-2.643v-13.59h6.183v23.36h-5.07l-.445-3.197h-.312a9.88 9.88 0 0 1-1.979 1.954c-.756.563-1.61 1-2.558 1.31-.949.311-1.987.467-3.113.467-2.373 0-4.256-.651-5.65-1.954-1.394-1.303-2.09-3.405-2.09-6.307V21.855h6.183Zm142.516-.533c2.372 0 4.374.422 6.005 1.266 1.63.844 2.861 2.147 3.692 3.908.83 1.763 1.245 4.035 1.245 6.818v1.599h-16.324c.058 1.362.274 2.517.645 3.464.37.948.949 1.651 1.734 2.11.785.46 1.831.688 3.136.688a6.56 6.56 0 0 0 1.935-.267 4.113 4.113 0 0 0 1.49-.799c.415-.355.741-.8.979-1.332.237-.533.356-1.14.356-1.821h6.05c0 1.48-.268 2.769-.802 3.864a7.543 7.543 0 0 1-2.224 2.731c-.949.726-2.083 1.274-3.402 1.644-1.32.37-2.78.555-4.382.555-2.58 0-4.744-.437-6.494-1.31s-3.069-2.214-3.959-4.02c-.89-1.806-1.335-4.1-1.335-6.884 0-2.812.445-5.115 1.335-6.906.89-1.791 2.202-3.124 3.937-3.998 1.735-.872 3.862-1.31 6.383-1.31Zm47.772-6.129v6.662h4.27v4.752h-4.27v12.17c0 .71.162 1.251.49 1.62.325.372.859.556 1.6.556h2.18v4.086c-.355.119-.771.23-1.245.333-.475.104-.98.192-1.512.267-.534.073-1.024.111-1.469.111-1.483 0-2.683-.267-3.603-.8-.919-.533-1.586-1.25-2.001-2.154-.416-.902-.623-1.902-.623-2.998v-13.19h-2.891v-4.753h3.113l1.157-6.662h4.804ZM13.26 21.995l12.85 22.227 12.852-22.227L52.19 44.871a.232.232 0 0 1-.202.348H.232a.232.232 0 0 1-.2-.348l13.227-22.876Zm174.079-.673c1.542 0 2.891.282 4.048.844 1.156.563 2.053 1.451 2.69 2.665.638 1.215.957 2.798.957 4.752v15.634h-6.183V30.56c0-.74-.089-1.37-.266-1.887a3.312 3.312 0 0 0-.78-1.288 2.94 2.94 0 0 0-1.267-.733 6.011 6.011 0 0 0-1.69-.222c-.92 0-1.75.222-2.491.666a4.66 4.66 0 0 0-1.735 1.82c-.416.771-.622 1.66-.622 2.666v13.635h-6.183V21.855h5.115l.49 3.198h.31a8.54 8.54 0 0 1 1.935-1.999 8.506 8.506 0 0 1 2.558-1.288c.949-.295 1.986-.444 3.114-.444Zm98.347 0c1.541 0 2.89.282 4.048.844 1.156.563 2.053 1.451 2.69 2.665.638 1.215.957 2.798.957 4.752v15.634h-6.183V30.56c0-.74-.089-1.37-.267-1.887a3.312 3.312 0 0 0-.778-1.288 2.94 2.94 0 0 0-1.268-.733 6.011 6.011 0 0 0-1.69-.222c-.92 0-1.75.222-2.491.666a4.657 4.657 0 0 0-1.735 1.82c-.416.771-.623 1.66-.623 2.666v13.635h-6.183V21.855h5.116l.489 3.198h.311a8.548 8.548 0 0 1 1.935-1.999 8.506 8.506 0 0 1 2.558-1.288c.949-.295 1.986-.444 3.114-.444Zm-124.012 0c1.482 0 2.764.267 3.847.8 1.083.533 1.935 1.399 2.558 2.598.623 1.2.934 2.747.934 4.641v15.856h-6.183V30.472c0-.74-.082-1.37-.245-1.888-.163-.518-.393-.933-.69-1.244a2.68 2.68 0 0 0-1.111-.688 4.49 4.49 0 0 0-1.423-.222c-.83 0-1.572.222-2.224.666-.653.444-1.165 1.051-1.535 1.82-.37.771-.556 1.66-.556 2.666v13.635h-6.183V30.472c0-.74-.082-1.37-.245-1.888-.163-.518-.393-.933-.69-1.244a2.684 2.684 0 0 0-1.089-.688 4.435 4.435 0 0 0-1.445-.222c-.8 0-1.535.222-2.202.666-.667.444-1.187 1.051-1.557 1.82-.371.771-.556 1.66-.556 2.666v13.635h-6.183V21.855h5.115l.49 3.198h.311a8.608 8.608 0 0 1 1.802-1.999 7.617 7.617 0 0 1 2.357-1.288 8.766 8.766 0 0 1 2.825-.444c1.482 0 2.764.297 3.847.889 1.083.592 1.92 1.54 2.514 2.842h.31a8.378 8.378 0 0 1 1.825-1.999 7.749 7.749 0 0 1 2.446-1.288 9.531 9.531 0 0 1 2.936-.444Zm-78.11-6.572 11.743 30.468h-7.161l-2.18-5.996h-13.3l-2.18 5.996h-6.85L75.38 14.749h8.184Zm122.5 7.106v23.362h-6.183V21.855h6.183Zm144.029-.577c.503 0 .962.052 1.378.156.415.103.726.199.934.288v5.596h-1.913c-.919 0-1.727.127-2.424.377a4.231 4.231 0 0 0-1.757 1.178c-.474.532-.822 1.184-1.045 1.954-.222.77-.334 1.673-.334 2.709v11.68h-6.182v-23.36h5.115l.489 3.641h.312a8.787 8.787 0 0 1 1.156-2.11 5.378 5.378 0 0 1 1.78-1.532c.711-.384 1.54-.577 2.49-.577Zm-246.2-8.172v32.11h-6.184v-32.11h6.183ZM223.9 14.749l6.583 19.453c.118.327.251.718.4 1.177.148.46.296.91.445 1.355.148.444.267.844.356 1.199h.266c.118-.326.245-.703.379-1.133.133-.429.267-.866.4-1.31.133-.444.26-.858.378-1.243l6.583-19.498h6.895L235.51 45.217h-7.74l-11.03-30.468h7.162ZM79.427 20.523h-.266a45.814 45.814 0 0 1-.578 1.976c-.238.755-.476 1.481-.712 2.177-.238.695-.43 1.265-.579 1.71L74.58 33.89h9.475l-2.714-7.506c-.119-.325-.26-.717-.423-1.177a43.612 43.612 0 0 1-.51-1.532 96.78 96.78 0 0 1-.512-1.665 49.39 49.39 0 0 0-.468-1.488Zm178.057 5.374c-1.128 0-2.069.185-2.825.555a3.826 3.826 0 0 0-1.735 1.688c-.4.755-.674 1.71-.823 2.865h9.875c0-.889-.111-1.658-.333-2.31-.223-.65-.527-1.184-.912-1.599a3.446 3.446 0 0 0-1.402-.91 5.564 5.564 0 0 0-1.845-.29Zm107.599 0c-1.128 0-2.07.185-2.825.555a3.826 3.826 0 0 0-1.735 1.688c-.4.755-.675 1.71-.823 2.865h9.875c0-.889-.111-1.658-.334-2.31-.222-.65-.526-1.184-.912-1.599a3.446 3.446 0 0 0-1.4-.91 5.564 5.564 0 0 0-1.846-.29ZM25.91.116a.232.232 0 0 1 .402 0l8.377 14.487-8.578 14.835-8.578-14.835Zm180.154 12.99v5.33h-6.183v-5.33h6.183Z"/></svg>