<?xml version="1.0" encoding="UTF-8"?> <svg xmlns="http://www.w3.org/2000/svg" width="420" height="90" viewBox="0 0 420 90" fill="none"> <g clip-path="url(#clip0_415_47)"> <path d="M108.16 81.65L89.4901 0.779973C89.3701 0.239973 88.8301 -0.0900273 88.2901 0.0299727L61.0101 6.32997C60.4701 6.44997 60.1401 6.98997 60.2601 7.52997L73.6101 65.36C73.7501 65.94 72.9201 66.23 72.6701 65.68L51.1801 19.59C50.9501 19.09 50.3501 18.87 49.8501 19.11L24.4701 30.94C23.9701 31.17 23.7501 31.77 23.9901 32.27L38.4001 63.17C38.6401 63.68 37.9901 64.13 37.5901 63.73L21.5001 47.64C21.1101 47.25 20.4801 47.25 20.0901 47.64L0.290059 67.45C-0.0999414 67.84 -0.0999414 68.47 0.290059 68.86L20.0901 88.66C20.4801 89.05 21.1101 89.05 21.5001 88.66L40.6201 69.54C40.8701 69.29 41.2801 69.37 41.4301 69.68L50.1901 88.46C50.4201 88.96 51.0201 89.18 51.5201 88.94L75.8201 77.61C76.1101 77.48 76.4501 77.64 76.5201 77.95L78.9301 88.39C79.0501 88.93 79.5901 89.26 80.1301 89.14L107.41 82.84C107.95 82.72 108.28 82.18 108.16 81.64V81.65Z" fill="#04212B"></path> <path d="M165.62 64.21L161.93 73.26H161.37L157.55 64.21L146.53 41.79H136.12V83.06H143.82V59.46L143.51 53.3H144.06L146.59 59.46L156.88 80.59H166.11L176.4 59.46L178.87 53.3H179.42L179.17 59.46V83.06H186.87V41.79H176.4L165.62 64.21Z" fill="#04212B"></path> <path d="M218.2 53.45C215.76 52.32 212.91 51.76 209.67 51.76C206.43 51.76 203.42 52.42 200.89 53.73C198.36 55.04 196.4 56.89 195.01 59.27C193.61 61.65 192.92 64.47 192.92 67.71C192.92 71.2 193.62 74.14 195.01 76.52C196.41 78.9 198.38 80.69 200.92 81.88C203.47 83.07 206.44 83.67 209.85 83.67C212.97 83.67 215.71 83.2 218.07 82.25C220.43 81.3 222.28 79.99 223.61 78.31C224.94 76.63 225.61 74.68 225.61 72.46V71.91H217.97V72.46C217.97 74.06 217.32 75.3 216.03 76.19C214.74 77.07 212.57 77.51 209.53 77.51C206.08 77.51 203.64 76.76 202.2 75.26C200.89 73.89 200.18 71.9 200.07 69.32H225.73C225.81 68.87 225.87 68.42 225.91 67.96C225.95 67.51 225.97 67.02 225.97 66.48C225.97 63.32 225.28 60.64 223.91 58.44C222.53 56.24 220.62 54.58 218.18 53.45H218.2ZM202.21 59.98C203.65 58.48 206.09 57.73 209.54 57.73C212.62 57.73 214.91 58.36 216.41 59.61C217.87 60.83 218.62 62.69 218.65 65.18H200.13C200.34 62.95 201.03 61.21 202.21 59.97V59.98Z" fill="#04212B"></path> <path d="M259.56 53.42C257.71 52.31 255.37 51.76 252.54 51.76C249.91 51.76 247.71 52.24 245.92 53.21C244.13 54.17 242.75 55.42 241.76 56.94C240.77 58.46 240.14 60.08 239.85 61.81H239.36V52.39H232.28V83.07H239.98V67.73C239.98 64.69 240.69 62.41 242.1 60.89C243.52 59.37 245.81 58.61 248.97 58.61C252.13 58.61 254.18 59.27 255.47 60.58C256.76 61.89 257.41 63.91 257.41 66.62V83.07H265.11V64.34C265.11 62 264.65 59.87 263.72 57.96C262.8 56.05 261.41 54.54 259.56 53.43V53.42Z" fill="#04212B"></path> <path d="M322.8 53.73C320.23 52.42 317.2 51.76 313.71 51.76C310.22 51.76 307.29 52.42 304.69 53.73C302.08 55.04 300.06 56.89 298.62 59.27C297.18 61.65 296.46 64.47 296.46 67.71C296.46 70.95 297.18 73.65 298.62 76.06C300.06 78.46 302.08 80.33 304.69 81.67C307.3 83 310.31 83.67 313.71 83.67C317.11 83.67 320.23 83 322.8 81.67C325.37 80.34 327.38 78.47 328.84 76.06C330.3 73.66 331.03 70.88 331.03 67.71C331.03 64.54 330.3 61.65 328.84 59.27C327.38 56.89 325.37 55.04 322.8 53.73ZM321.17 74.55C319.69 76.07 317.21 76.83 313.72 76.83C310.23 76.83 307.8 76.07 306.3 74.55C304.8 73.03 304.05 70.75 304.05 67.71C304.05 64.67 304.8 62.38 306.3 60.84C307.8 59.3 310.27 58.53 313.72 58.53C317.17 58.53 319.69 59.3 321.17 60.84C322.65 62.38 323.39 64.67 323.39 67.71C323.39 70.75 322.65 73.03 321.17 74.55Z" fill="#04212B"></path> <path d="M366.43 75.6001H365.88L355.65 52.3701H347.15L361.32 83.0501H370.8L385.03 52.3701H376.72L366.43 75.6001Z" fill="#04212B"></path> <path d="M419.26 65.43V64.75C419.26 62.12 418.57 59.83 417.2 57.88C415.82 55.93 413.92 54.42 411.5 53.35C409.08 52.28 406.28 51.75 403.12 51.75C399.67 51.75 396.67 52.41 394.13 53.72C391.58 55.03 389.61 56.88 388.22 59.26C386.82 61.64 386.13 64.46 386.13 67.7C386.13 70.94 386.83 73.64 388.22 76.05C389.62 78.45 391.59 80.32 394.13 81.66C396.68 82.99 399.67 83.66 403.12 83.66C406.28 83.66 409.07 83.12 411.5 82.03C413.92 80.94 415.82 79.42 417.2 77.47C418.58 75.52 419.26 73.25 419.26 70.66V69.92H411.68V70.35C411.68 72.57 410.91 74.19 409.37 75.22C407.83 76.25 405.68 76.76 402.93 76.76C399.77 76.76 397.45 76.03 395.97 74.57C394.49 73.11 393.75 70.82 393.75 67.7C393.75 64.58 394.49 62.28 395.97 60.8C397.45 59.32 399.77 58.58 402.93 58.58C405.68 58.58 407.83 59.09 409.37 60.12C410.91 61.15 411.68 62.77 411.68 64.99V65.42H419.26V65.43Z" fill="#04212B"></path> <path d="M279.096 43.138L272.349 46.7224L275.924 53.4517L282.671 49.8673L279.096 43.138Z" fill="#04212B"></path> <path d="M293.01 58.7199V52.3799H269.66V58.7199H274.71V72.3999C274.71 76.1799 275.7 78.8999 277.67 80.5599C279.64 82.2199 282.33 83.0599 285.74 83.0599H293.01V76.1599H287.47C285.66 76.1599 284.36 75.8599 283.56 75.2699C282.76 74.6799 282.36 73.5099 282.36 71.7899V58.7299H293.02L293.01 58.7199Z" fill="#04212B"></path> </g> <defs> <clipPath id="clip0_415_47"> <rect width="419.26" height="89.17" fill="white"></rect> </clipPath> </defs> </svg> 