<svg width="236" height="58" viewBox="0 0 236 58" fill="none" xmlns="http://www.w3.org/2000/svg">
<path d="M18.7071 28.7025H31.5584C35.5015 28.7025 38.698 25.506 38.698 21.5629C38.698 17.6198 35.5015 14.4233 31.5584 14.4233H18.7071V28.7025ZM18.7071 28.7025H34.4142C38.3573 28.7025 41.5538 31.899 41.5538 35.8421C41.5538 39.7852 38.3573 42.9817 34.4142 42.9817H18.7071V28.7025ZM16.708 54.4051H40.697C45.4953 54.4051 47.8944 54.4051 49.7271 53.4713C51.3392 52.6499 52.6499 51.3392 53.4713 49.7271C54.4051 47.8944 54.4051 45.4953 54.4051 40.697V16.708C54.4051 11.9098 54.4051 9.51063 53.4713 7.67794C52.6499 6.06586 51.3392 4.7552 49.7271 3.9338C47.8944 3 45.4953 3 40.697 3L16.708 3C11.9098 3 9.51063 3 7.67794 3.9338C6.06586 4.7552 4.7552 6.06586 3.9338 7.67794C3 9.51063 3 11.9098 3 16.708L3 40.697C3 45.4953 3 47.8944 3.9338 49.7271C4.7552 51.3392 6.06586 52.6499 7.67794 53.4713C9.51063 54.4051 11.9098 54.4051 16.708 54.4051Z" stroke="white" stroke-width="6" stroke-linecap="round" stroke-linejoin="round"/>
<path d="M76.9574 54.7848C74.7107 54.7848 72.6795 54.3693 70.8636 53.5384C69.0478 52.692 67.609 51.4686 66.5472 49.8683C65.5008 48.2679 64.9776 46.3059 64.9776 43.9822C64.9776 41.9818 65.3623 40.3352 66.1317 39.0426C66.9012 37.75 67.9399 36.7267 69.2479 35.9727C70.5559 35.2186 72.0178 34.6493 73.6335 34.2646C75.2493 33.8799 76.8958 33.5875 78.5732 33.3874C80.6967 33.1412 82.4202 32.9412 83.7436 32.7873C85.067 32.618 86.0288 32.3487 86.6289 31.9794C87.229 31.6101 87.5291 31.0099 87.5291 30.179V30.0174C87.5291 28.0015 86.9598 26.4396 85.821 25.3317C84.6977 24.2237 83.0204 23.6697 80.7891 23.6697C78.4654 23.6697 76.6342 24.1852 75.2955 25.2163C73.9721 26.2319 73.0565 27.3629 72.5487 28.6094L66.0625 27.1321C66.8319 24.9777 67.9553 23.2389 69.4325 21.9155C70.9252 20.5767 72.641 19.6072 74.5799 19.0071C76.5188 18.3916 78.5578 18.0838 80.6967 18.0838C82.1125 18.0838 83.6128 18.2531 85.1978 18.5916C86.7982 18.9148 88.2908 19.5149 89.6758 20.392C91.0761 21.2692 92.2225 22.5233 93.1151 24.1545C94.0076 25.7702 94.4538 27.8707 94.4538 30.456V54H87.7138V49.1527H87.4368C86.9905 50.0452 86.3211 50.9223 85.4286 51.7841C84.5361 52.6458 83.3897 53.3614 81.9893 53.9308C80.589 54.5001 78.9117 54.7848 76.9574 54.7848ZM78.4577 49.245C80.3659 49.245 81.997 48.868 83.3512 48.114C84.7208 47.36 85.7595 46.3751 86.4673 45.1594C87.1906 43.9284 87.5522 42.6127 87.5522 41.2124V36.642C87.306 36.8883 86.829 37.1191 86.1211 37.3345C85.4286 37.5346 84.6361 37.7115 83.7436 37.8654C82.8511 38.0039 81.9817 38.1347 81.1353 38.2578C80.2889 38.3655 79.5811 38.4579 79.0117 38.5348C77.6729 38.7041 76.4496 38.9888 75.3416 39.3888C74.2491 39.7889 73.3719 40.366 72.7102 41.12C72.0639 41.8587 71.7408 42.8435 71.7408 44.0746C71.7408 45.7827 72.3717 47.0753 73.6335 47.9524C74.8954 48.8142 76.5034 49.245 78.4577 49.245ZM130.214 27.2013L123.959 28.3093C123.697 27.5091 123.282 26.7474 122.712 26.0241C122.158 25.3009 121.404 24.7085 120.45 24.2468C119.496 23.7852 118.304 23.5543 116.873 23.5543C114.918 23.5543 113.287 23.9929 111.979 24.87C110.671 25.7318 110.017 26.8474 110.017 28.217C110.017 29.4019 110.456 30.3559 111.333 31.0792C112.21 31.8024 113.626 32.3949 115.58 32.8565L121.212 34.1491C124.474 34.9032 126.906 36.065 128.506 37.6346C130.107 39.2042 130.907 41.2431 130.907 43.7514C130.907 45.875 130.291 47.7678 129.06 49.4297C127.844 51.0762 126.144 52.3688 123.959 53.3075C121.789 54.2462 119.273 54.7156 116.411 54.7156C112.441 54.7156 109.202 53.8692 106.693 52.1765C104.185 50.4684 102.646 48.0447 102.077 44.9055L108.748 43.8899C109.163 45.6288 110.017 46.9445 111.31 47.837C112.602 48.7141 114.287 49.1527 116.365 49.1527C118.627 49.1527 120.435 48.6834 121.789 47.7447C123.143 46.7906 123.82 45.6288 123.82 44.2592C123.82 43.1513 123.405 42.2203 122.574 41.4663C121.758 40.7122 120.504 40.1429 118.812 39.7582L112.81 38.4425C109.502 37.6884 107.055 36.4882 105.47 34.8416C103.9 33.1951 103.116 31.11 103.116 28.5863C103.116 26.4935 103.7 24.6623 104.87 23.0927C106.039 21.5231 107.655 20.2997 109.717 19.4226C111.779 18.5301 114.141 18.0838 116.803 18.0838C120.635 18.0838 123.651 18.9148 125.852 20.5767C128.052 22.2232 129.506 24.4315 130.214 27.2013ZM153.776 54.7156C150.282 54.7156 147.274 53.9692 144.75 52.4766C142.242 50.9685 140.303 48.8526 138.934 46.1289C137.579 43.3898 136.902 40.1813 136.902 36.5035C136.902 32.8719 137.579 29.6712 138.934 26.9013C140.303 24.1314 142.211 21.9693 144.658 20.4151C147.12 18.8609 149.998 18.0838 153.291 18.0838C155.291 18.0838 157.23 18.4147 159.108 19.0763C160.985 19.738 162.67 20.7768 164.163 22.1925C165.655 23.6082 166.833 25.4471 167.694 27.7092C168.556 29.9558 168.987 32.6873 168.987 35.9034V38.3501H140.803V33.1797H162.224C162.224 31.3639 161.854 29.7558 161.116 28.3555C160.377 26.9397 159.338 25.8241 158 25.0085C156.676 24.1929 155.122 23.7852 153.337 23.7852C151.398 23.7852 149.705 24.2622 148.259 25.2163C146.828 26.1549 145.72 27.386 144.935 28.9094C144.166 30.4175 143.781 32.0563 143.781 33.826V37.8654C143.781 40.2352 144.196 42.2511 145.027 43.913C145.874 45.5749 147.051 46.8445 148.559 47.7216C150.067 48.5833 151.829 49.0142 153.845 49.0142C155.153 49.0142 156.345 48.8295 157.423 48.4602C158.5 48.0755 159.431 47.5062 160.216 46.7521C161 45.9981 161.6 45.0671 162.016 43.9592L168.548 45.1364C168.025 47.0599 167.086 48.7449 165.732 50.1914C164.393 51.6225 162.708 52.7382 160.677 53.5384C158.661 54.3232 156.361 54.7156 153.776 54.7156ZM181.192 54H173.621L190.632 6.72727H198.873L215.885 54H208.313L194.949 15.3139H194.579L181.192 54ZM182.461 35.4879H207.021V41.4893H182.461V35.4879ZM229.844 6.72727V54H222.711V6.72727H229.844Z" fill="white"/>
</svg>
