<svg fill="none" height="197" viewBox="0 0 800 197" width="800" xmlns="http://www.w3.org/2000/svg" xmlns:xlink="http://www.w3.org/1999/xlink"><clipPath id="a"><path d="m0 0h800v197h-800z"/></clipPath><g clip-path="url(#a)" fill="#fff"><path d="m77.9246 0h-77.9246v196.996h51.0247v-53.934h26.8999c61.9414 0 89.4124-20.142 89.4124-71.2667 0-51.1248-27.471-71.7953-89.4124-71.7953zm3.0791 98.6498h-29.979v-54.196h29.979c24.6953 0 35.6163 7.2827 35.6163 27.3831 0 20.1003-10.962 26.8129-35.6163 26.8129z"/><path d="m384.84 179.967-24.921-179.967h-14.075-48.071-14.366l-25.021 179.967-26.941-179.967h-51.025l28.879 196.996h94.17l18.283-146.8533 18.205 146.8533h93.749l28.754-196.996h-50.8z"/><path d="m645.851 0-56.087 178.564-56.046-178.564h-54.104l63.087 196.996h93.329l63.354-196.996z"/><path d="m737.196 134.377c-34.679.012-62.8 28.049-62.8 62.623h125.604c0-34.574-28.121-62.611-62.8-62.623z"/></g></svg>