<svg width="732" height="732" viewBox="0 0 732 732" fill="none" xmlns="http://www.w3.org/2000/svg">
<g filter="url(#filter0_d_4111_14)">
<path d="M587.222 0C509.593 0 446.444 63.1489 446.444 140.778V201.111H285.556V140.778C285.556 63.1489 222.407 0 144.778 0C67.1489 0 4 63.1489 4 140.778C4 218.407 67.1489 281.556 144.778 281.556H205.111V442.444H144.778C67.1489 442.444 4 505.593 4 583.222C4 660.851 67.1489 724 144.778 724C222.407 724 285.556 660.851 285.556 583.222V522.889H446.444V583.222C446.444 660.851 509.593 724 587.222 724C664.851 724 728 660.851 728 583.222C728 505.593 664.851 442.444 587.222 442.444H526.889V281.556H587.222C664.851 281.556 728 218.407 728 140.778C728 63.1489 664.851 0 587.222 0ZM526.889 201.111V140.778C526.889 107.393 553.838 80.4444 587.222 80.4444C620.607 80.4444 647.556 107.393 647.556 140.778C647.556 174.162 620.607 201.111 587.222 201.111H526.889ZM144.778 201.111C111.393 201.111 84.4444 174.162 84.4444 140.778C84.4444 107.393 111.393 80.4444 144.778 80.4444C178.162 80.4444 205.111 107.393 205.111 140.778V201.111H144.778ZM285.556 442.444V281.556H446.444V442.444H285.556ZM587.222 643.556C553.838 643.556 526.889 616.607 526.889 583.222V522.889H587.222C620.607 522.889 647.556 549.838 647.556 583.222C647.556 616.607 620.607 643.556 587.222 643.556ZM144.778 643.556C111.393 643.556 84.4444 616.607 84.4444 583.222C84.4444 549.838 111.393 522.889 144.778 522.889H205.111V583.222C205.111 616.607 178.162 643.556 144.778 643.556Z" fill="white"/>
</g>
<defs>
<filter id="filter0_d_4111_14" x="0.338028" y="0" width="731.324" height="731.324" filterUnits="userSpaceOnUse" color-interpolation-filters="sRGB">
<feFlood flood-opacity="0" result="BackgroundImageFix"/>
<feColorMatrix in="SourceAlpha" type="matrix" values="0 0 0 0 0 0 0 0 0 0 0 0 0 0 0 0 0 0 127 0" result="hardAlpha"/>
<feOffset dy="3.66197"/>
<feGaussianBlur stdDeviation="1.83099"/>
<feComposite in2="hardAlpha" operator="out"/>
<feColorMatrix type="matrix" values="0 0 0 0 0 0 0 0 0 0 0 0 0 0 0 0 0 0 0.25 0"/>
<feBlend mode="normal" in2="BackgroundImageFix" result="effect1_dropShadow_4111_14"/>
<feBlend mode="normal" in="SourceGraphic" in2="effect1_dropShadow_4111_14" result="shape"/>
</filter>
</defs>
</svg>
