<svg width="725" height="232" viewBox="0 0 725 232" fill="none" xmlns="http://www.w3.org/2000/svg">
<path fill-rule="evenodd" clip-rule="evenodd" d="M117.717 9.45093H113.411C86.4127 9.45093 67.1146 9.471 52.449 11.4427C38.0553 13.3779 29.5472 17.0358 23.2915 23.2915C17.0358 29.5472 13.3779 38.0553 11.4427 52.449C9.471 67.1146 9.45093 86.4127 9.45093 113.411V117.716C9.45093 144.715 9.471 164.013 11.4427 178.679C13.3779 193.072 17.0358 201.58 23.2915 207.836C29.5472 214.092 38.0553 217.75 52.449 219.685C67.1146 221.657 86.4127 221.677 113.411 221.677H117.716C144.715 221.677 164.013 221.657 178.679 219.685C193.072 217.75 201.58 214.092 207.836 207.836C214.092 201.58 217.75 193.072 219.685 178.679C221.657 164.013 221.677 144.715 221.677 117.717V113.411C221.677 86.4127 221.657 67.1146 219.685 52.449C217.75 38.0553 214.092 29.5472 207.836 23.2915C201.58 17.0358 193.072 13.3779 178.679 11.4427C164.013 9.471 144.715 9.45093 117.717 9.45093ZM16.6087 16.6087C0 33.2174 0 59.9486 0 113.411V117.716C0 171.179 0 197.91 16.6087 214.519C33.2174 231.128 59.9486 231.128 113.411 231.128H117.716C171.179 231.128 197.91 231.128 214.519 214.519C231.128 197.91 231.128 171.179 231.128 117.717V113.411C231.128 59.9486 231.128 33.2174 214.519 16.6087C197.91 0 171.179 0 117.717 0H113.411C59.9486 0 33.2174 0 16.6087 16.6087Z" fill="white"/>
<path d="M159.024 44.4476C143.773 44.4476 131.367 56.8534 131.367 72.1039V83.9566H99.7602V72.1039C99.7602 56.8534 87.3544 44.4476 72.1039 44.4476C56.8534 44.4476 44.4476 56.8534 44.4476 72.1039C44.4476 87.3544 56.8534 99.7602 72.1039 99.7602H83.9566V131.367H72.1039C56.8534 131.367 44.4476 143.773 44.4476 159.024C44.4476 174.274 56.8534 186.68 72.1039 186.68C87.3544 186.68 99.7602 174.274 99.7602 159.024V147.171H131.367V159.024C131.367 174.274 143.773 186.68 159.024 186.68C174.274 186.68 186.68 174.274 186.68 159.024C186.68 143.773 174.274 131.367 159.024 131.367H147.171V99.7602H159.024C174.274 99.7602 186.68 87.3544 186.68 72.1039C186.68 56.8534 174.274 44.4476 159.024 44.4476ZM147.171 83.9566V72.1039C147.171 65.5454 152.465 60.2512 159.024 60.2512C165.582 60.2512 170.876 65.5454 170.876 72.1039C170.876 78.6624 165.582 83.9566 159.024 83.9566H147.171ZM72.1039 83.9566C65.5454 83.9566 60.2512 78.6624 60.2512 72.1039C60.2512 65.5454 65.5454 60.2512 72.1039 60.2512C78.6624 60.2512 83.9566 65.5454 83.9566 72.1039V83.9566H72.1039ZM99.7602 131.367V99.7602H131.367V131.367H99.7602ZM159.024 170.876C152.465 170.876 147.171 165.582 147.171 159.024V147.171H159.024C165.582 147.171 170.876 152.465 170.876 159.024C170.876 165.582 165.582 170.876 159.024 170.876ZM72.1039 170.876C65.5454 170.876 60.2512 165.582 60.2512 159.024C60.2512 152.465 65.5454 147.171 72.1039 147.171H83.9566V159.024C83.9566 165.582 78.6624 170.876 72.1039 170.876Z" fill="white"/>
<path d="M345.605 150.27C309.53 150.27 284 124.74 284 81.82C284 40.01 308.235 13 345.975 13C380.385 13 398.885 30.575 404.62 61.84L375.39 62.95C372.245 46.485 362.255 36.68 345.975 36.68C325.07 36.68 312.86 54.44 312.86 81.82C312.86 109.57 325.625 126.59 345.79 126.59C363.55 126.59 373.17 116.045 375.76 98.285L405.175 99.395C399.81 131.4 379.645 150.27 345.605 150.27Z" fill="white"/>
<path d="M425.422 147.31V15.96H453.542V69.425H503.307V15.96H531.427V147.31H503.307V93.105H453.542V147.31H425.422Z" fill="white"/>
<path d="M549.688 147.31L597.047 15.96H630.347L677.707 147.31H648.477L638.857 119.375H588.352L578.732 147.31H549.688ZM596.307 96.25H631.087L613.698 45.56L596.307 96.25Z" fill="white"/>
<path d="M695.876 147.31V15.96H723.996V147.31H695.876Z" fill="white"/>
<path d="M314.666 217.991C309.29 217.991 305.004 215.495 302.825 211.239L302.607 217.11H295.415V165H303.116V183.569C305.077 180.193 309.29 177.183 314.666 177.183C324.764 177.183 331.084 185.11 331.084 197.587C331.084 210.064 324.764 217.991 314.666 217.991ZM313.431 211.239C319.316 211.239 323.093 206.028 323.093 197.587C323.093 189 319.388 183.936 313.504 183.936C306.966 183.936 303.116 189 303.116 197.587C303.116 206.028 306.966 211.239 313.431 211.239Z" fill="#E5E5E5"/>
<path d="M340.162 228.119V221.734H344.811C347.427 221.734 348.444 221 349.17 219.165L350.405 215.936H348.008L334.06 178.064H342.196L352.802 208.743L362.973 178.064H371.109L355.708 221.661C354.11 226.138 351.35 228.119 345.974 228.119H340.162Z" fill="#E5E5E5"/>
<path d="M396.599 217.11V165H404.445V209.844H429.58V217.11H396.599Z" fill="#E5E5E5"/>
<path d="M449.122 217.991C441.131 217.991 435.901 214.101 435.901 207.349C435.901 200.67 439.824 197.073 448.251 195.385L461.545 192.817C461.545 186.798 458.784 183.789 453.263 183.789C448.323 183.789 445.563 186.064 444.546 190.321L436.555 189.807C438.008 182.028 444.037 177.183 453.263 177.183C463.724 177.183 469.245 183.128 469.245 193.257V208.45C469.245 210.358 469.899 210.945 471.352 210.945H472.732V217.11C472.224 217.257 470.989 217.33 469.899 217.33C465.468 217.33 462.852 215.642 462.199 211.092C460.237 215.202 455.152 217.991 449.122 217.991ZM450.43 211.826C457.331 211.826 461.545 207.422 461.545 201.183V198.688L450.285 200.89C445.635 201.771 443.892 203.606 443.892 206.615C443.892 209.991 446.289 211.826 450.43 211.826Z" fill="#E5E5E5"/>
<path d="M480.293 217.11V178.064H487.34L487.558 184.817C489.592 179.532 494.023 177.183 499.254 177.183C507.899 177.183 512.33 183.495 512.33 192.009V217.11H504.629V194.358C504.629 187.459 502.523 183.716 497.147 183.716C491.699 183.716 487.994 187.459 487.994 194.358V217.11H480.293Z" fill="#E5E5E5"/>
<path d="M537.985 229C528.759 229 522.729 224.523 521.131 217.771L529.122 217.257C530.139 220.56 532.464 222.541 537.985 222.541C544.378 222.541 547.865 219.899 547.865 214.248V208.596C545.976 212.56 541.617 215.128 536.604 215.128C526.87 215.128 519.969 207.422 519.969 196.193C519.969 185.037 526.797 177.183 536.386 177.183C541.835 177.183 546.339 179.899 548.155 184.229V178.064H555.638V214.028C555.638 223.642 548.809 229 537.985 229ZM537.839 208.523C543.942 208.523 547.865 203.826 547.937 196.119C548.01 188.486 544.014 183.789 537.839 183.789C531.592 183.789 527.96 188.56 527.96 196.119C527.96 203.752 531.737 208.523 537.839 208.523Z" fill="#E5E5E5"/>
<path d="M584.889 217.991C579.513 217.991 575.227 215.495 573.048 211.239L572.83 217.11H565.638V165H573.338V183.569C575.3 180.193 579.513 177.183 584.889 177.183C594.987 177.183 601.307 185.11 601.307 197.587C601.307 210.064 594.987 217.991 584.889 217.991ZM583.654 211.239C589.538 211.239 593.316 206.028 593.316 197.587C593.316 189 589.611 183.936 583.727 183.936C577.189 183.936 573.338 189 573.338 197.587C573.338 206.028 577.189 211.239 583.654 211.239Z" fill="#E5E5E5"/>
<path d="M620.876 217.991C612.885 217.991 607.654 214.101 607.654 207.349C607.654 200.67 611.577 197.073 620.004 195.385L633.298 192.817C633.298 186.798 630.538 183.789 625.017 183.789C620.077 183.789 617.316 186.064 616.299 190.321L608.308 189.807C609.761 182.028 615.791 177.183 625.017 177.183C635.478 177.183 640.999 183.128 640.999 193.257V208.45C640.999 210.358 641.653 210.945 643.106 210.945H644.486V217.11C643.977 217.257 642.742 217.33 641.653 217.33C637.221 217.33 634.606 215.642 633.952 211.092C631.991 215.202 626.906 217.991 620.876 217.991ZM622.184 211.826C629.085 211.826 633.298 207.422 633.298 201.183V198.688L622.038 200.89C617.389 201.771 615.645 203.606 615.645 206.615C615.645 209.991 618.043 211.826 622.184 211.826Z" fill="#E5E5E5"/>
<path d="M666.802 217.991C655.905 217.991 650.021 212.486 649.44 204.78L657.431 204.413C658.085 208.743 660.845 211.459 666.802 211.459C671.597 211.459 674.648 209.991 674.648 206.541C674.648 203.679 673.195 202.431 665.422 201.11C653.944 199.055 650.384 195.679 650.384 189.294C650.384 182.174 655.833 177.183 665.858 177.183C675.738 177.183 680.968 182.908 682.058 190.028L674.14 190.468C673.413 186.431 670.58 183.716 665.785 183.716C660.773 183.716 658.375 185.917 658.375 189C658.375 192.45 660.7 193.844 667.02 194.872C679.007 196.853 682.639 200.083 682.639 206.468C682.639 213.807 676.028 217.991 666.802 217.991Z" fill="#E5E5E5"/>
<path d="M706.907 217.991C695.72 217.991 688.601 209.917 688.601 197.587C688.601 185.257 695.72 177.183 706.689 177.183C717.223 177.183 724.415 184.743 724.415 197.881V199.862H696.664C697.028 207.495 700.878 211.312 706.98 211.312C711.557 211.312 714.608 209.037 715.843 205.367L723.834 205.881C721.8 213.147 715.48 217.991 706.907 217.991ZM716.206 193.991C715.77 187.092 711.993 183.789 706.689 183.789C701.241 183.789 697.536 187.385 696.664 193.991H716.206Z" fill="#E5E5E5"/>
</svg>
