<svg width="1263" height="232" viewBox="0 0 1263 232" fill="none" xmlns="http://www.w3.org/2000/svg">
<path fill-rule="evenodd" clip-rule="evenodd" d="M117.717 9.45093H113.411C86.4127 9.45093 67.1146 9.471 52.449 11.4427C38.0553 13.3779 29.5472 17.0358 23.2915 23.2915C17.0358 29.5472 13.3779 38.0553 11.4427 52.449C9.471 67.1146 9.45093 86.4127 9.45093 113.411V117.716C9.45093 144.715 9.471 164.013 11.4427 178.679C13.3779 193.072 17.0358 201.58 23.2915 207.836C29.5472 214.092 38.0553 217.75 52.449 219.685C67.1146 221.657 86.4127 221.677 113.411 221.677H117.716C144.715 221.677 164.013 221.657 178.679 219.685C193.072 217.75 201.58 214.092 207.836 207.836C214.092 201.58 217.75 193.072 219.685 178.679C221.657 164.013 221.677 144.715 221.677 117.717V113.411C221.677 86.4127 221.657 67.1146 219.685 52.449C217.75 38.0553 214.092 29.5472 207.836 23.2915C201.58 17.0358 193.072 13.3779 178.679 11.4427C164.013 9.471 144.715 9.45093 117.717 9.45093ZM16.6087 16.6087C0 33.2174 0 59.9486 0 113.411V117.716C0 171.179 0 197.91 16.6087 214.519C33.2174 231.128 59.9486 231.128 113.411 231.128H117.716C171.179 231.128 197.91 231.128 214.519 214.519C231.128 197.91 231.128 171.179 231.128 117.717V113.411C231.128 59.9486 231.128 33.2174 214.519 16.6087C197.91 0 171.179 0 117.717 0H113.411C59.9486 0 33.2174 0 16.6087 16.6087Z" fill="white"/>
<path d="M159.024 44.4476C143.773 44.4476 131.367 56.8534 131.367 72.1039V83.9566H99.7602V72.1039C99.7602 56.8534 87.3544 44.4476 72.1039 44.4476C56.8534 44.4476 44.4476 56.8534 44.4476 72.1039C44.4476 87.3544 56.8534 99.7602 72.1039 99.7602H83.9566V131.367H72.1039C56.8534 131.367 44.4476 143.773 44.4476 159.024C44.4476 174.274 56.8534 186.68 72.1039 186.68C87.3544 186.68 99.7602 174.274 99.7602 159.024V147.171H131.367V159.024C131.367 174.274 143.773 186.68 159.024 186.68C174.274 186.68 186.68 174.274 186.68 159.024C186.68 143.773 174.274 131.367 159.024 131.367H147.171V99.7602H159.024C174.274 99.7602 186.68 87.3544 186.68 72.1039C186.68 56.8534 174.274 44.4476 159.024 44.4476ZM147.171 83.9566V72.1039C147.171 65.5454 152.465 60.2512 159.024 60.2512C165.582 60.2512 170.876 65.5454 170.876 72.1039C170.876 78.6624 165.582 83.9566 159.024 83.9566H147.171ZM72.1039 83.9566C65.5454 83.9566 60.2512 78.6624 60.2512 72.1039C60.2512 65.5454 65.5454 60.2512 72.1039 60.2512C78.6624 60.2512 83.9566 65.5454 83.9566 72.1039V83.9566H72.1039ZM99.7602 131.367V99.7602H131.367V131.367H99.7602ZM159.024 170.876C152.465 170.876 147.171 165.582 147.171 159.024V147.171H159.024C165.582 147.171 170.876 152.465 170.876 159.024C170.876 165.582 165.582 170.876 159.024 170.876ZM72.1039 170.876C65.5454 170.876 60.2512 165.582 60.2512 159.024C60.2512 152.465 65.5454 147.171 72.1039 147.171H83.9566V159.024C83.9566 165.582 78.6624 170.876 72.1039 170.876Z" fill="white"/>
<path d="M343.5 155.88C308.58 155.88 283.56 131.04 283.56 89.28C283.56 48.6 307.14 22.32 344.04 22.32C377.52 22.32 395.52 39.42 400.92 69.84L372.48 70.92C369.6 54.9 359.88 45.36 344.04 45.36C323.7 45.36 311.82 62.64 311.82 89.28C311.82 116.28 324.24 132.84 343.86 132.84C360.96 132.84 370.32 122.58 372.84 105.3L401.46 106.38C396.24 137.52 376.8 155.88 343.5 155.88ZM478.028 155.88C439.148 155.88 415.748 130.5 415.748 89.28C415.748 48.06 439.148 22.32 478.028 22.32C516.908 22.32 540.308 48.06 540.308 89.28C540.308 130.5 516.908 155.88 478.028 155.88ZM478.028 132.84C499.268 132.84 512.048 117 512.048 89.28C512.048 61.56 499.268 45.36 478.028 45.36C456.608 45.36 444.008 61.56 444.008 89.28C444.008 117 456.608 132.84 478.028 132.84ZM558.441 153V25.2H594.981L627.561 118.26L659.961 25.2H696.501V153H669.141V70.2L639.081 152.64H615.681L585.801 70.2V153H558.441ZM720.687 153V25.2H757.227L789.807 118.26L822.207 25.2H858.747V153H831.387V70.2L801.327 152.64H777.927L748.047 70.2V153H720.687ZM873.736 153L919.816 25.2H952.216L998.296 153H969.856L960.496 125.82H911.356L901.996 153H873.736ZM919.096 103.32H952.936L936.016 54L919.096 103.32ZM1010.37 153V25.2H1040.61L1091.37 113.4V25.2H1118.73V153H1088.13L1037.73 67.86V153H1010.37ZM1142.91 153V25.2H1187.01C1228.41 25.2 1251.63 48.24 1251.63 89.28C1251.63 130.14 1228.77 153 1188.09 153H1142.91ZM1170.27 129.96H1187.01C1211.67 129.96 1223.37 116.82 1223.37 89.1C1223.37 61.38 1211.67 48.24 1187.01 48.24H1170.27V129.96Z" fill="white"/>
<path d="M853.235 220.855C847.96 220.855 843.755 218.432 841.616 214.298L841.402 220H834.346V169.392H841.901V187.426C843.826 184.147 847.96 181.225 853.235 181.225C863.142 181.225 869.344 188.923 869.344 201.04C869.344 213.157 863.142 220.855 853.235 220.855ZM852.023 214.298C857.796 214.298 861.503 209.237 861.503 201.04C861.503 192.7 857.868 187.782 852.094 187.782C845.679 187.782 841.901 192.7 841.901 201.04C841.901 209.237 845.679 214.298 852.023 214.298ZM877.971 230.692V224.491H882.604C885.17 224.491 886.168 223.778 886.88 221.996L888.092 218.86H885.74L872.054 182.08H880.038L890.444 211.874L900.352 182.08H908.406L893.295 224.419C891.727 228.767 889.019 230.692 883.673 230.692H877.971ZM933.347 220V169.392H941.045V212.943H965.707V220H933.347ZM984.739 220.855C976.827 220.855 971.766 217.078 971.766 210.52C971.766 204.034 975.544 200.541 983.884 198.902L996.928 196.407C996.928 190.562 994.148 187.64 988.73 187.64C983.884 187.64 981.175 189.849 980.177 193.983L972.408 193.484C973.833 185.929 979.749 181.225 988.73 181.225C998.995 181.225 1004.48 186.998 1004.48 196.835V211.589C1004.48 213.442 1005.05 214.013 1006.48 214.013H1007.83V220C1007.33 220.143 1006.19 220.214 1005.05 220.214C1000.71 220.214 998.139 218.574 997.569 214.155C995.645 218.147 990.655 220.855 984.739 220.855ZM985.951 214.868C992.793 214.868 996.928 210.591 996.928 204.533V202.109L985.808 204.247C981.246 205.103 979.607 206.885 979.607 209.807C979.607 213.086 981.888 214.868 985.951 214.868ZM1014.21 220V182.08H1021.13L1021.27 188.709C1023.26 183.505 1027.61 181.225 1032.82 181.225C1041.3 181.225 1045.65 187.354 1045.65 195.623V220H1038.09V197.904C1038.09 191.204 1036.02 187.568 1030.75 187.568C1025.4 187.568 1021.77 191.204 1021.77 197.904V220H1014.21ZM1070.74 231.547C1061.69 231.547 1055.85 227.199 1054.21 220.642L1062.05 220.143C1063.05 223.35 1065.4 225.275 1070.74 225.275C1077.02 225.275 1080.51 222.709 1080.51 217.22V211.732C1078.66 215.581 1074.38 218.075 1069.46 218.075C1059.91 218.075 1053.14 210.591 1053.14 199.686C1053.14 188.851 1059.77 181.225 1069.18 181.225C1074.59 181.225 1078.94 183.862 1080.79 188.067V182.08H1088.06V217.006C1088.06 226.344 1081.36 231.547 1070.74 231.547ZM1070.67 211.66C1076.59 211.66 1080.44 207.099 1080.51 199.614C1080.65 192.201 1076.66 187.64 1070.67 187.64C1064.54 187.64 1060.98 192.273 1060.98 199.614C1060.98 207.027 1064.68 211.66 1070.67 211.66ZM1116.77 220.855C1111.5 220.855 1107.29 218.432 1105.15 214.298L1104.94 220H1097.88V169.392H1105.44V187.426C1107.36 184.147 1111.5 181.225 1116.77 181.225C1126.68 181.225 1132.88 188.923 1132.88 201.04C1132.88 213.157 1126.68 220.855 1116.77 220.855ZM1115.56 214.298C1121.33 214.298 1125.04 209.237 1125.04 201.04C1125.04 192.7 1121.4 187.782 1115.63 187.782C1109.21 187.782 1105.44 192.7 1105.44 201.04C1105.44 209.237 1109.21 214.298 1115.56 214.298ZM1151.94 220.855C1144.03 220.855 1138.96 217.078 1138.96 210.52C1138.96 204.034 1142.74 200.541 1151.08 198.902L1164.13 196.407C1164.13 190.562 1161.35 187.64 1155.93 187.64C1151.08 187.64 1148.37 189.849 1147.38 193.983L1139.61 193.484C1141.03 185.929 1146.95 181.225 1155.93 181.225C1166.19 181.225 1171.68 186.998 1171.68 196.835V211.589C1171.68 213.442 1172.25 214.013 1173.68 214.013H1175.03V220C1174.53 220.143 1173.39 220.214 1172.25 220.214C1167.9 220.214 1165.34 218.574 1164.77 214.155C1162.84 218.147 1157.85 220.855 1151.94 220.855ZM1153.15 214.868C1159.99 214.868 1164.13 210.591 1164.13 204.533V202.109L1153.01 204.247C1148.44 205.103 1146.8 206.885 1146.8 209.807C1146.8 213.086 1149.09 214.868 1153.15 214.868ZM1195.74 220.855C1185.05 220.855 1179.35 215.509 1178.78 208.025L1186.55 207.669C1187.26 211.874 1189.97 214.512 1195.74 214.512C1200.45 214.512 1203.44 213.086 1203.44 209.736C1203.44 206.956 1202.02 205.744 1194.46 204.461C1183.2 202.466 1179.71 199.187 1179.71 192.985C1179.71 186.071 1184.98 181.225 1194.82 181.225C1204.58 181.225 1209.64 186.784 1210.71 193.698L1202.94 194.126C1202.23 190.206 1199.45 187.568 1194.75 187.568C1189.9 187.568 1187.55 189.707 1187.55 192.7C1187.55 196.05 1189.76 197.405 1195.96 198.403C1207.79 200.327 1211.28 203.463 1211.28 209.665C1211.28 216.792 1204.8 220.855 1195.74 220.855ZM1234.54 220.855C1223.49 220.855 1216.58 213.015 1216.58 201.04C1216.58 189.065 1223.49 181.225 1234.33 181.225C1244.66 181.225 1251.65 188.566 1251.65 201.325V203.25H1224.42C1224.77 210.663 1228.55 214.369 1234.61 214.369C1239.03 214.369 1242.02 212.159 1243.24 208.595L1251.08 209.094C1249.08 216.151 1242.88 220.855 1234.54 220.855ZM1224.42 197.547H1243.66C1243.16 190.847 1239.46 187.64 1234.33 187.64C1228.91 187.64 1225.27 191.132 1224.42 197.547Z" fill="#E5E5E5"/>
</svg>
